HIERARCHY
ROOT Hips
{
 OFFSET 0.000000 0.000000 0.000000
 CHANNELS 6 Xposition Yposition Zposition Yrotation Xrotation Zrotation
 JOINT Chest
 {
  OFFSET 0.000000 10.354800 0.006500
  CHANNELS 3 Yrotation Xrotation Zrotation
  JOINT Chest2
  {
   OFFSET 0.000000 10.435800 -0.013200
   CHANNELS 3 Yrotation Xrotation Zrotation
   JOINT Chest3
   {
    OFFSET 0.000000 10.393700 0.000000
    CHANNELS 3 Yrotation Xrotation Zrotation
    JOINT Chest4
    {
     OFFSET 0.000000 10.383100 0.000000
     CHANNELS 3 Yrotation Xrotation Zrotation
     JOINT Neck
     {
      OFFSET 0.000000 15.694000 0.000000
      CHANNELS 3 Yrotation Xrotation Zrotation
      JOINT Head
      {
       OFFSET 0.000000 9.711000 -0.028000
       CHANNELS 3 Yrotation Xrotation Zrotation
       End Site
       {
        OFFSET 0.000000 18.578700 -0.014800
       }
      }
     }
     JOINT RightCollar
     {
      OFFSET -3.157200 10.367500 0.000000
      CHANNELS 3 Yrotation Xrotation Zrotation
      JOINT RightShoulder
      {
       OFFSET -14.482500 0.000000 0.000000
       CHANNELS 3 Yrotation Xrotation Zrotation
       JOINT RightElbow
       {
        OFFSET 0.000000 -31.707800 0.000000
        CHANNELS 3 Yrotation Xrotation Zrotation
        JOINT RightWrist
        {
         OFFSET 0.000000 -25.659300 0.000000
         CHANNELS 3 Yrotation Xrotation Zrotation
         End Site
         {
          OFFSET 0.000000 -18.994300 0.000000
         }
        }
       }
      }
     }
     JOINT LeftCollar
     {
      OFFSET 3.157200 10.367500 0.000000
      CHANNELS 3 Yrotation Xrotation Zrotation
      JOINT LeftShoulder
      {
       OFFSET 14.482500 0.000000 0.000000
       CHANNELS 3 Yrotation Xrotation Zrotation
       JOINT LeftElbow
       {
        OFFSET 0.000000 -31.707800 0.000000
        CHANNELS 3 Yrotation Xrotation Zrotation
        JOINT LeftWrist
        {
         OFFSET 0.000000 -25.659300 0.000000
         CHANNELS 3 Yrotation Xrotation Zrotation
         End Site
         {
          OFFSET 0.000000 -18.994300 0.000000
         }
        }
       }
      }
     }
    }
   }
  }
 }
 JOINT RightHip
 {
  OFFSET -8.365600 -0.032100 -0.003200
  CHANNELS 3 Yrotation Xrotation Zrotation
  JOINT RightKnee
  {
   OFFSET 0.000000 -43.980000 0.003100
   CHANNELS 3 Yrotation Xrotation Zrotation
   JOINT RightAnkle
   {
    OFFSET 0.000000 -42.882800 0.005200
    CHANNELS 3 Yrotation Xrotation Zrotation
    JOINT RightToe
    {
     OFFSET 0.000000 -4.915500 10.826300
     CHANNELS 3 Yrotation Xrotation Zrotation
     End Site
     {
      OFFSET 0.000000 -1.517500 6.175900
     }
    }
   }
  }
 }
 JOINT LeftHip
 {
  OFFSET 8.365600 -0.032100 -0.003200
  CHANNELS 3 Yrotation Xrotation Zrotation
  JOINT LeftKnee
  {
   OFFSET 0.000000 -43.980000 0.003100
   CHANNELS 3 Yrotation Xrotation Zrotation
   JOINT LeftAnkle
   {
    OFFSET 0.000000 -42.882800 0.005200
    CHANNELS 3 Yrotation Xrotation Zrotation
    JOINT LeftToe
    {
     OFFSET 0.000000 -4.915500 10.826300
     CHANNELS 3 Yrotation Xrotation Zrotation
     End Site
     {
      OFFSET 0.000000 -1.517500 6.175900
     }
    }
   }
  }
 }
}
MOTION
Frames: 13
Frame Time: 0.008333
0.000000 91.618600 0.000000 0.000000 -5.767877 0.000000 0.000000 11.653817 0.000000 0.000000 -5.885947 0.000000 0.000000 -0.000000 0.000000 0.000000 -0.000000 0.000000 0.000000 12.528835 0.000000 0.000000 0.711642 0.000000 0.000000 -0.000000 0.000000 0.000000 0.000000 -90.000000 0.000000 -2.309062 0.000000 0.000000 2.309062 0.000000 0.000000 -0.000000 0.000000 0.000000 -0.000000 90.000000 0.000000 -2.309062 0.000000 0.000000 2.309062 0.000000 0.000000 8.520406 0.000000 0.000000 1.905762 0.000000 -0.000000 -4.658285 0.000000 0.000000 -0.000000 0.000000 0.000000 8.520406 0.000000 0.000000 1.905762 0.000000 -0.000000 -4.658285 0.000000 0.000000 -0.000000 0.000000
-7.586732 146.218956 30.332892 -177.028843 -17.524695 -3.758236 -1.920285 9.782812 3.020185 -0.144571 0.628126 0.243711 -0.237155 1.080285 0.423805 -1.728873 9.053760 3.422384 -4.056989 21.213407 -0.781400 -4.160683 -3.052551 0.082347 2.142514 4.327474 -3.293337 16.837113 -13.439541 -5.730736 34.116915 -35.976788 -19.544143 -9.358423 -11.269284 -24.960412 -3.992981 6.266321 -0.601326 -12.990543 -22.176472 1.995355 -36.670669 -22.730809 22.316985 -6.179894 2.895290 13.996987 12.042022 -46.571599 -9.411604 -167.575219 58.617989 -164.660855 -5.308122 -36.440942 11.527400 0.360055 -2.012250 1.869689 -5.668898 -45.291389 2.820782 162.847442 62.856636 164.807029 -1.942003 -37.694366 -5.581249 0.286111 -3.431759 0.399958
-3.536858 139.922533 30.768385 -177.043442 -17.517458 -4.002294 -1.868775 9.784395 3.269128 -0.143528 0.627388 0.244680 -0.241666 1.081598 0.421979 -1.734492 9.050009 3.423653 -4.046245 21.215216 -0.781799 -4.168482 -3.057296 0.085944 2.128872 4.329018 -3.293997 16.843610 -13.450128 -5.724045 34.122207 -35.969123 -19.529601 -9.377872 -11.286027 -24.981995 -3.991215 6.268707 -0.597879 -12.970415 -22.172307 1.990407 -36.681622 -22.737435 22.310932 -6.175935 2.896146 14.006133 11.809631 -46.659600 -9.073801 -167.612852 58.564192 -164.699776 -5.215872 -36.693193 11.534449 0.113592 -0.335042 0.051515 -5.895850 -45.238284 3.174104 162.809736 62.922589 164.775601 -1.784700 -37.456886 -5.615676 0.158157 0.307203 0.071956
-0.202890 134.737507 31.126070 -177.035873 -17.514918 -4.203691 -1.851143 9.790327 3.465594 -0.139103 0.626996 0.246793 -0.242872 1.084088 0.419665 -1.744156 9.047328 3.426192 -4.042914 21.213506 -0.781668 -4.164916 -3.059566 0.085303 2.110825 4.332979 -3.297794 16.866441 -13.459849 -5.720346 34.089879 -35.964655 -19.499751 -9.394364 -11.316786 -25.013323 -3.988655 6.269486 -0.601856 -12.948289 -22.159857 1.996760 -36.691289 -22.752001 22.309336 -6.172130 2.886736 14.014524 11.605683 -46.726350 -8.802894 -167.640878 58.518521 -164.726892 -5.165441 -36.884746 11.548955 0.040082 -0.177815 0.018187 -6.081071 -45.184390 3.453126 162.780386 62.982714 164.759621 -1.690820 -37.282159 -5.634155 0.066554 0.166153 0.030257
2.200515 130.992375 31.384436 -177.012588 -17.510807 -4.331077 -1.859778 9.799925 3.578701 -0.137247 0.624142 0.250507 -0.239924 1.081729 0.419746 -1.749132 9.048697 3.425058 -4.040394 21.209998 -0.778064 -4.159838 -3.062470 0.092945 2.112908 4.331420 -3.294343 16.861579 -13.465307 -5.716029 34.016367 -35.964904 -19.443865 -9.345122 -11.344766 -25.027590 -3.988188 6.268440 -0.597644 -12.938973 -22.137505 2.021947 -36.686120 -22.788982 22.286923 -6.167279 2.879982 14.039742 11.466450 -46.768399 -8.648389 -167.662452 58.487810 -164.742260 -5.146701 -36.994707 11.552422 0.014310 -0.087081 0.006495 -6.205961 -45.151625 3.621512 162.758506 63.022641 164.748334 -1.658804 -37.176581 -5.637692 0.027994 0.082052 0.012720
3.717230 128.626739 31.547706 -176.994184 -17.505749 -4.407561 -1.867161 9.801782 3.647833 -0.137520 0.623090 0.248754 -0.239561 1.081947 0.421359 -1.749502 9.046060 3.422374 -4.036460 21.210793 -0.772871 -4.158885 -3.060935 0.096028 2.109800 4.334451 -3.289696 16.832220 -13.477481 -5.696446 34.010948 -35.955806 -19.420490 -9.348764 -11.369063 -25.050880 -3.990822 6.266946 -0.589179 -12.926138 -22.124673 2.030204 -36.690476 -22.809181 22.271383 -6.144926 2.860072 14.069012 11.379844 -46.796408 -8.556114 -167.677632 58.467777 -164.756438 -5.143236 -37.056958 11.558063 0.002063 -0.036496 0.000937 -6.273045 -45.135472 3.717269 162.745581 63.047732 164.749935 -1.647318 -37.111623 -5.642611 0.011751 0.032613 0.005338
4.550614 127.325403 31.637366 -176.984889 -17.501965 -4.447179 -1.874252 9.803629 3.683213 -0.133745 0.622524 0.247403 -0.241160 1.081324 0.422904 -1.746531 9.042216 3.421110 -4.035620 21.212612 -0.770251 -4.157561 -3.058458 0.099603 2.101443 4.338555 -3.288945 16.831166 -13.481890 -5.690953 33.976442 -35.956824 -19.390083 -9.340004 -11.388088 -25.075869 -3.992787 6.269636 -0.588250 -12.915291 -22.114176 2.043559 -36.695596 -22.832753 22.251475 -6.134018 2.854797 14.091419 11.337015 -46.812398 -8.511684 -167.690287 58.455572 -164.767065 -5.145102 -37.086410 11.564668 -0.001279 -0.011289 -0.000581 -6.295769 -45.129102 3.763836 162.738881 63.061384 164.757826 -1.642808 -37.077273 -5.649464 0.004422 0.008451 0.002008
4.946209 126.705385 31.680059 -176.985920 -17.498779 -4.460315 -1.874439 9.802782 3.696009 -0.134468 0.624227 0.246705 -0.243615 1.082002 0.424099 -1.756344 9.046235 3.423997 -4.026380 21.211841 -0.768947 -4.150682 -3.063506 0.094951 2.101223 4.339708 -3.296816 16.839253 -13.491958 -5.688592 33.946485 -35.956984 -19.361895 -9.355265 -11.426656 -25.121552 -3.978387 6.263471 -0.593241 -12.905675 -22.107355 2.052656 -36.688968 -22.845196 22.220875 -6.131188 2.844101 14.118950 11.328480 -46.821308 -8.500681 -167.687394 58.452091 -164.759171 -5.137118 -37.081883 11.567397 0.000068 -0.004849 0.000031 -6.284986 -45.130815 3.777136 162.731569 63.064651 164.763280 -1.646168 -37.068211 -5.651575 0.003217 0.002022 0.001461
5.106928 126.451479 31.697316 -176.986949 -17.496977 -4.462926 -1.877784 9.803097 3.698026 -0.139228 0.626136 0.246677 -0.239974 1.084325 0.424452 -1.757691 9.046075 3.426728 -4.021514 21.211483 -0.769248 -4.148935 -3.068134 0.092699 2.104262 4.336259 -3.302084 16.833134 -13.488986 -5.682186 33.942666 -35.960103 -19.356420 -9.359983 -11.447172 -25.139486 -3.976989 6.256353 -0.597327 -12.897165 -22.103309 2.055252 -36.684450 -22.847143 22.208017 -6.130937 2.838199 14.130071 11.329779 -46.825227 -8.501317 -167.689092 58.450983 -164.758563 -5.135349 -37.080427 11.568767 0.000998 -0.002712 0.000453 -6.268689 -45.133671 3.778088 162.706072 63.062453 164.742978 -1.658531 -37.063350 -5.648191 -0.000353 -0.001181 -0.000160
5.162715 126.362902 31.703288 -176.984420 -17.494524 -4.468256 -1.881154 9.805354 3.702470 -0.139589 0.626598 0.247104 -0.237670 1.084870 0.423517 -1.761390 9.043787 3.428481 -4.018294 21.214367 -0.768304 -4.145389 -3.069001 0.091916 2.104992 4.334325 -3.304404 16.833863 -13.485292 -5.681413 33.930368 -35.963229 -19.348832 -9.362662 -11.467770 -25.154253 -3.971552 6.251803 -0.602588 -12.882260 -22.092599 2.069810 -36.694475 -22.863453 22.193044 -6.121217 2.831405 14.134436 11.323822 -46.828805 -8.496574 -167.689334 58.450773 -164.758703 -5.134819 -37.078193 11.572675 0.001308 -0.002141 0.000594 -6.252060 -45.138174 3.778665 162.690764 63.061602 164.740158 -1.667584 -37.060915 -5.646457 -0.000898 -0.002181 -0.000408
5.179140 126.336621 31.705790 -176.965439 -17.486379 -4.480705 -1.895564 9.804206 3.707848 -0.140152 0.626481 0.247312 -0.238729 1.083144 0.425248 -1.767238 9.042423 3.428947 -4.011295 21.219658 -0.766264 -4.139854 -3.070759 0.090918 2.112400 4.334589 -3.304416 16.828793 -13.477689 -5.674227 33.896728 -35.965302 -19.331146 -9.338184 -11.491826 -25.172204 -3.966757 6.249455 -0.607025 -12.850593 -22.081798 2.093613 -36.713832 -22.889513 22.167687 -6.098323 2.820500 14.133999 11.302190 -46.835617 -8.491433 -167.690926 58.452009 -164.758376 -5.133208 -37.074409 11.577863 0.001734 -0.002471 0.000787 -6.250170 -45.148142 3.781051 162.674746 63.062214 164.742055 -1.675513 -37.060548 -5.649403 0.000310 -0.000580 0.000141
5.182216 126.330250 31.705831 -176.959352 -17.486278 -4.484751 -1.893558 9.812205 3.711328 -0.141278 0.627553 0.248225 -0.242144 1.079653 0.426219 -1.773741 9.041916 3.431387 -4.004315 21.223936 -0.767719 -4.122804 -3.060626 0.084753 2.114594 4.338332 -3.310780 16.830515 -13.485243 -5.673876 33.883595 -35.964902 -19.317128 -9.328838 -11.499979 -25.185604 -3.960557 6.239706 -0.613223 -12.834280 -22.069026 2.102514 -36.705149 -22.905610 22.139241 -6.102937 2.813721 14.142899 11.298734 -46.833384 -8.490390 -167.701622 58.453955 -164.768221 -5.136135 -37.072304 11.585502 0.001385 -0.001450 0.000629 -6.237817 -45.149932 3.778815 162.660182 63.059582 164.737320 -1.682159 -37.064585 -5.651925 -0.000542 -0.001102 -0.000246
5.182362 126.328943 31.705595 -176.948304 -17.485758 -4.491647 -1.898577 9.818063 3.717544 -0.141583 0.628055 0.248608 -0.242215 1.082039 0.427214 -1.782621 9.042958 3.434135 -3.999067 21.219118 -0.772063 -4.115417 -3.054826 0.081103 2.117021 4.331536 -3.317973 16.834890 -13.483637 -5.670014 33.877379 -35.964515 -19.311975 -9.324274 -11.520704 -25.203549 -3.949659 6.233307 -0.624730 -12.830254 -22.063511 2.114625 -36.705904 -22.918531 22.128068 -6.105244 2.812186 14.145691 11.284987 -46.833277 -8.483844 -167.705848 58.458644 -164.780667 -5.137885 -37.068488 11.594791 -0.002013 -0.002425 -0.000914 -6.233737 -45.152281 3.777922 162.648209 63.057861 164.739372 -1.689384 -37.066942 -5.653338 0.001074 -0.001185 0.000488
